<svg width="639" height="617" viewBox="0 0 639 617" fill="none" xmlns="http://www.w3.org/2000/svg">
<g clip-path="url(#clip0_18_2668)">
<path fill-rule="evenodd" clip-rule="evenodd" d="M490.365 483.334C485.253 475.411 378.151 335.846 378.151 335.846L339.089 291.16V290.859C339.089 274.67 325.966 261.546 309.775 261.546H246.942C230.751 261.546 217.627 274.67 217.627 290.859V532.796H289.812L289.71 522.954L289.966 345.56L440.828 541.779C453.971 532.779 485.696 510.961 502.034 498.905C496.774 492.174 492.15 486.101 490.365 483.334Z" fill="black"/>
<path fill-rule="evenodd" clip-rule="evenodd" d="M217.627 541.869V604.495C217.627 604.495 215.582 615.246 226.574 615.246C237.565 615.246 324.358 621.296 328.308 597.338C332.142 574.077 307.092 573.566 307.092 573.566L290.221 572.287L289.812 532.794H217.627V541.869Z" fill="#7FBCCE"/>
<path fill-rule="evenodd" clip-rule="evenodd" d="M494.966 599.126C503.177 593.196 555.036 556.695 563.214 547.492C571.395 538.291 573.567 527.683 564.365 518.608C553.294 507.691 530.497 520.91 523.851 526.277C523.851 526.277 511.836 511.448 502.034 498.905C485.696 510.961 453.971 532.779 440.828 541.779L483.766 597.626C483.766 597.626 488.064 604.111 494.966 599.126Z" fill="#7FBCCE"/>
<path fill-rule="evenodd" clip-rule="evenodd" d="M230.153 580.594C231.431 592.608 250.213 589.906 250.218 579.159C250.224 565.641 228.417 564.277 230.153 580.594Z" fill="#D3E0D5"/>
<path fill-rule="evenodd" clip-rule="evenodd" d="M490.856 574.448C502.869 573.17 500.167 554.388 489.42 554.382C475.903 554.376 474.537 576.185 490.856 574.448Z" fill="#D3E0D5"/>
<path fill-rule="evenodd" clip-rule="evenodd" d="M285.981 550.29C280.759 550.29 276.364 549.11 276.087 549.032C275.167 548.78 274.625 547.829 274.878 546.908C275.13 545.989 276.084 545.446 277.002 545.696C277.098 545.723 286.359 548.199 293.216 545.738C294.114 545.413 295.105 545.882 295.428 546.781C295.751 547.68 295.283 548.67 294.384 548.993C291.671 549.967 288.713 550.29 285.981 550.29Z" fill="black"/>
<path fill-rule="evenodd" clip-rule="evenodd" d="M284.017 561.309C279.744 561.309 276.42 560.61 276.181 560.558C275.248 560.357 274.655 559.438 274.855 558.504C275.056 557.572 275.966 556.973 276.91 557.177C277.001 557.196 286.268 559.129 293.144 556.309C294.03 555.945 295.038 556.369 295.401 557.252C295.763 558.137 295.341 559.147 294.457 559.509C291.054 560.905 287.261 561.309 284.017 561.309Z" fill="black"/>
<path fill-rule="evenodd" clip-rule="evenodd" d="M286.391 573.254C281.491 573.254 277.653 571.684 277.412 571.582C276.53 571.214 276.115 570.2 276.484 569.32C276.854 568.439 277.86 568.022 278.744 568.391C278.82 568.421 286.411 571.497 293.075 568.416C293.947 568.014 294.97 568.396 295.37 569.262C295.771 570.13 295.392 571.157 294.525 571.557C291.765 572.831 288.935 573.254 286.391 573.254Z" fill="black"/>
<path fill-rule="evenodd" clip-rule="evenodd" d="M514.458 532.225C513.809 532.225 513.185 531.856 512.892 531.229C512.486 530.365 512.858 529.334 513.722 528.928C513.809 528.888 522.323 524.845 525.836 519.226C526.341 518.415 527.41 518.171 528.219 518.676C529.029 519.182 529.275 520.25 528.767 521.06C524.709 527.552 515.577 531.881 515.189 532.061C514.954 532.172 514.703 532.225 514.458 532.225Z" fill="black"/>
<path fill-rule="evenodd" clip-rule="evenodd" d="M509.281 523.023C508.62 523.023 507.988 522.641 507.702 521.998C507.312 521.127 507.703 520.105 508.574 519.715C508.661 519.675 517.249 515.798 520.775 511.394C521.371 510.646 522.458 510.529 523.206 511.124C523.951 511.721 524.072 512.808 523.475 513.555C519.425 518.617 510.368 522.7 509.986 522.871C509.756 522.974 509.517 523.023 509.281 523.023Z" fill="black"/>
<path fill-rule="evenodd" clip-rule="evenodd" d="M504.104 515.546C503.4 515.546 502.738 515.112 502.481 514.41C502.152 513.514 502.614 512.52 503.509 512.193C507.071 510.888 513.086 507.78 514.073 504.995C514.392 504.095 515.377 503.625 516.281 503.942C517.18 504.261 517.652 505.25 517.333 506.15C515.486 511.368 505.797 515.04 504.698 515.44C504.502 515.513 504.301 515.546 504.104 515.546Z" fill="black"/>
<path fill-rule="evenodd" clip-rule="evenodd" d="M571.272 120.486H580.959C580.959 120.486 586.85 135.214 609.007 132.622C632.704 129.85 639.474 111.957 636.815 94.7899C634.592 80.4436 626.211 57.9153 573.343 67.3463L571.272 120.486Z" fill="#EF9E89"/>
<path fill-rule="evenodd" clip-rule="evenodd" d="M634.505 87.4529C634.304 87.4529 634.099 87.4171 633.9 87.3431C622.767 83.1973 603.243 84.0928 603.047 84.1032C602.059 84.1633 601.278 83.4111 601.232 82.4566C601.186 81.4999 601.923 80.6876 602.878 80.6402C603.706 80.601 623.306 79.6985 635.109 84.0951C636.007 84.429 636.462 85.4262 636.128 86.3228C635.869 87.0219 635.207 87.4529 634.505 87.4529Z" fill="black"/>
<mask id="mask0_18_2668" style="mask-type:luminance" maskUnits="userSpaceOnUse" x="601" y="92" width="38" height="7">
<path fill-rule="evenodd" clip-rule="evenodd" d="M601.23 92.6815H638.548V98.809H601.23V92.6815Z" fill="black"/>
</mask>
<g mask="url(#mask0_18_2668)">
<path fill-rule="evenodd" clip-rule="evenodd" d="M636.815 98.809C636.645 98.809 636.469 98.7836 636.298 98.7293C628.892 96.4148 603.206 96.1502 602.947 96.1479C601.99 96.1387 601.221 95.3564 601.23 94.3997C601.239 93.4476 602.013 92.6815 602.963 92.6815H602.979C604.055 92.6919 629.441 92.9554 637.331 95.42C638.245 95.7054 638.755 96.6783 638.47 97.5911C638.237 98.3341 637.553 98.809 636.815 98.809Z" fill="black"/>
</g>
<path fill-rule="evenodd" clip-rule="evenodd" d="M636.472 111.675C636.366 111.675 636.258 111.665 636.151 111.645C622.315 109.051 604.493 109.02 604.315 109.02C603.359 109.02 602.582 108.244 602.582 107.286C602.582 106.33 603.359 105.553 604.315 105.553C604.497 105.553 622.632 105.584 636.789 108.237C637.73 108.414 638.35 109.319 638.174 110.259C638.017 111.093 637.289 111.675 636.472 111.675Z" fill="black"/>
<mask id="mask1_18_2668" style="mask-type:luminance" maskUnits="userSpaceOnUse" x="19" y="100" width="297" height="229">
<path fill-rule="evenodd" clip-rule="evenodd" d="M19.3262 100.861H315.069V328.395H19.3262V100.861Z" fill="#C5DBF2"/>
</mask>
<g mask="url(#mask1_18_2668)">
<path fill-rule="evenodd" clip-rule="evenodd" d="M159.894 144.889C159.894 144.889 20.0991 181.904 19.3307 223.722C18.9517 244.354 41.3609 244.471 41.3609 244.471C41.3609 244.471 56.5461 244.471 59.4198 251.643C62.6539 259.712 60.5729 268.934 50.9663 275.21C41.3609 281.486 16.8175 289.361 24.5823 314.53C32.0108 338.61 76.7114 324.009 76.7114 324.009L186.092 291.22L315.069 250.747L313.788 100.861L159.894 144.889Z" fill="#E7B75F"/>
</g>
<path fill-rule="evenodd" clip-rule="evenodd" d="M191.042 291.22H378.86C380.847 291.22 382.465 289.627 382.497 287.64L385.514 100.861H245.65L187.57 286.496C186.837 288.838 188.587 291.22 191.042 291.22Z" fill="#FFE01B"/>
<path fill-rule="evenodd" clip-rule="evenodd" d="M217.28 190.421L207.003 190.489L194.906 240.674C202.039 241.042 209.663 241.035 209.663 241.035C209.663 241.035 263.901 244.535 267.966 215.452C272.197 185.175 246.225 171.861 217.28 190.421Z" fill="#EF9E89"/>
<path fill-rule="evenodd" clip-rule="evenodd" d="M183.402 190.164C183.402 190.164 170.145 190.933 170.155 179.286C170.161 171.024 177.158 167.59 182.825 167.686C188.493 167.782 231.663 169.037 231.663 169.037L245.65 100.86C245.65 100.86 155.993 92.4393 117.312 131.759C79.1877 170.515 93.5652 235.559 146.515 248.954C158.371 251.952 176.551 253.816 185.624 254.612C188.86 254.896 191.851 252.881 192.814 249.779L211.255 190.367L183.402 190.164Z" fill="#FFE01B"/>
<path fill-rule="evenodd" clip-rule="evenodd" d="M377.167 171.9C378.338 171.562 529.805 146.756 564.096 140.995C568.325 140.285 571.467 136.706 571.635 132.421L574.177 67.2074L385.514 100.861L377.167 171.9Z" fill="#FFE01B"/>
<path fill-rule="evenodd" clip-rule="evenodd" d="M254.583 100.86C254.583 100.86 265.918 107.841 277.254 111.202C288.589 114.564 314.054 126.649 314.054 126.649L313.788 118.151L291.086 100.86H254.583Z" fill="#E2334F"/>
<path fill-rule="evenodd" clip-rule="evenodd" d="M313.788 118.151L334.409 100.86H358.424C358.424 100.86 334.043 121.059 314.054 126.649L313.788 118.151Z" fill="#E2334F"/>
<path fill-rule="evenodd" clip-rule="evenodd" d="M313.788 118.151C313.788 118.151 304.727 117.648 302.182 126.649C299.635 135.65 305.255 139.349 311.259 139.588C317.263 139.829 324.755 137.283 323.891 128.157C323.026 119.032 313.788 118.151 313.788 118.151Z" fill="#E2334F"/>
<path fill-rule="evenodd" clip-rule="evenodd" d="M305.463 137.651C305.463 137.651 289.763 154.68 291.631 164.164C293.296 172.617 300.596 182.032 303.67 181.904C306.743 181.777 315.465 172.459 317.76 166.341C320.065 160.194 310.971 136.627 310.971 136.627L305.463 137.651Z" fill="#E2334F"/>
<path fill-rule="evenodd" clip-rule="evenodd" d="M316.119 135.015C316.119 135.015 330.339 142.303 333.229 150.627C336.106 158.913 335.208 169.901 332.488 171.337C329.768 172.773 320.429 171.404 315.772 167.912C311.093 164.402 310.898 136.985 310.898 136.985L316.119 135.015Z" fill="#E2334F"/>
<path fill-rule="evenodd" clip-rule="evenodd" d="M383.816 173.06H383.787C382.829 173.044 382.067 172.257 382.082 171.301C382.101 170.106 382.546 169.413 382.813 168.997C382.984 168.73 382.991 168.719 382.995 168.512C383.004 167.991 382.961 167.771 382.902 167.463C382.828 167.073 382.735 166.586 382.748 165.708C382.757 165.259 382.71 165.095 382.628 164.798C382.519 164.4 382.367 163.854 382.382 162.905C382.401 161.717 382.842 161.025 383.105 160.612C383.275 160.343 383.282 160.333 383.286 160.125C383.297 159.41 383.31 159.053 383.322 158.694C383.334 158.354 383.346 158.013 383.357 157.33C383.36 157.163 383.36 157.163 383.19 156.903C382.909 156.472 382.439 155.753 382.457 154.523C382.472 153.601 382.614 153.097 382.729 152.692C382.812 152.394 382.862 152.213 382.87 151.741C382.886 150.685 383.163 150.071 383.347 149.666C383.469 149.391 383.511 149.298 383.517 148.957C383.521 148.678 383.494 148.621 383.36 148.348C383.148 147.918 382.828 147.27 382.846 146.153C382.861 145.246 382.991 144.748 383.096 144.348C383.174 144.052 383.225 143.856 383.233 143.367C383.238 143.045 383.203 142.961 383.081 142.686C382.9 142.269 382.625 141.638 382.641 140.564C382.656 139.637 382.802 139.131 382.918 138.723C383.003 138.426 383.054 138.248 383.062 137.779C383.077 136.787 383.283 136.227 383.434 135.818C383.537 135.539 383.587 135.399 383.594 134.996C383.599 134.713 383.571 134.657 383.438 134.382C383.229 133.955 382.914 133.308 382.931 132.196C382.941 131.581 382.917 131.273 382.892 130.964C382.862 130.574 382.829 130.183 382.842 129.402C382.855 128.654 382.881 128.281 382.91 127.909C382.933 127.586 382.958 127.262 382.968 126.615C382.983 125.666 383.756 124.91 384.701 124.91H384.729C385.686 124.926 386.449 125.713 386.434 126.672C386.422 127.417 386.394 127.79 386.366 128.165C386.343 128.487 386.319 128.81 386.308 129.459C386.298 130.073 386.323 130.38 386.348 130.688C386.379 131.08 386.41 131.471 386.397 132.253C386.393 132.535 386.421 132.591 386.553 132.865C386.763 133.292 387.078 133.941 387.061 135.051C387.045 136.044 386.838 136.604 386.687 137.014C386.585 137.292 386.535 137.431 386.528 137.836C386.513 138.761 386.367 139.269 386.251 139.675C386.166 139.972 386.116 140.151 386.107 140.62C386.103 140.942 386.139 141.025 386.259 141.301C386.44 141.718 386.716 142.349 386.699 143.424C386.684 144.331 386.553 144.828 386.448 145.227C386.371 145.524 386.32 145.721 386.312 146.21C386.307 146.488 386.336 146.546 386.469 146.817C386.681 147.247 387.002 147.896 386.983 149.013C386.967 150.07 386.69 150.683 386.506 151.089C386.384 151.364 386.342 151.457 386.336 151.797C386.321 152.719 386.179 153.223 386.065 153.629C385.981 153.926 385.932 154.107 385.924 154.58C385.92 154.745 385.92 154.745 386.091 155.006C386.372 155.437 386.842 156.157 386.824 157.386C386.812 158.102 386.8 158.458 386.787 158.816C386.775 159.157 386.764 159.499 386.752 160.181C386.733 161.369 386.292 162.06 386.029 162.474C385.859 162.742 385.852 162.752 385.849 162.962C385.841 163.41 385.887 163.574 385.969 163.872C386.079 164.271 386.23 164.815 386.215 165.765C386.206 166.286 386.248 166.507 386.307 166.814C386.382 167.204 386.475 167.691 386.461 168.569C386.441 169.763 385.997 170.456 385.73 170.871C385.559 171.139 385.552 171.149 385.548 171.355C385.532 172.304 384.759 173.06 383.816 173.06Z" fill="black"/>
<path fill-rule="evenodd" clip-rule="evenodd" d="M235.477 227.561C234.683 227.561 233.968 227.013 233.786 226.207C233.576 225.274 234.163 224.346 235.098 224.136L266.886 216.989C267.823 216.775 268.746 217.367 268.958 218.299C269.167 219.233 268.58 220.161 267.646 220.37L235.858 227.518C235.731 227.547 235.602 227.561 235.477 227.561Z" fill="black"/>
<path fill-rule="evenodd" clip-rule="evenodd" d="M234.195 213.268C233.372 213.268 232.642 212.68 232.491 211.843C232.322 210.9 232.948 209.998 233.89 209.829L267.766 203.732C268.704 203.564 269.608 204.189 269.779 205.13C269.948 206.072 269.321 206.975 268.38 207.143L234.505 213.241C234.401 213.259 234.297 213.268 234.195 213.268Z" fill="black"/>
<path fill-rule="evenodd" clip-rule="evenodd" d="M234.195 200.152C233.391 200.152 232.67 199.589 232.5 198.77C232.306 197.832 232.909 196.914 233.845 196.72L263.423 190.59C264.348 190.395 265.277 190.996 265.471 191.937C265.665 192.872 265.063 193.79 264.126 193.984L234.55 200.115C234.431 200.139 234.313 200.152 234.195 200.152Z" fill="black"/>
<path fill-rule="evenodd" clip-rule="evenodd" d="M304.851 67.2073H291.68C285.725 67.2073 280.657 71.4756 279.599 77.3003C279.587 77.3731 279.577 77.4424 279.566 77.5164L279.559 77.5545C279.517 77.8376 279.473 78.1276 279.43 78.4154C277.897 88.5153 276.004 100.892 276.004 100.892H316.946L317.029 91.9193L317.142 79.6113C317.206 72.779 311.685 67.2073 304.851 67.2073Z" fill="#EF9E89"/>
<path fill-rule="evenodd" clip-rule="evenodd" d="M316.946 100.892C300.914 99.7641 296.533 96.3266 296.688 93.4645C296.826 90.9017 299.235 91.2587 300.287 91.283C304.925 91.3858 317.029 91.9185 317.029 91.9185" fill="black"/>
<path fill-rule="evenodd" clip-rule="evenodd" d="M338.267 60.8176C337.272 57.4078 330.293 54.8623 326.723 53.7646C325.192 47.2478 323.538 41.3988 322.04 38.5944C318.914 32.7501 309.385 26.6099 294.146 28.9682C284.027 30.5339 273.251 39.9729 280.251 56.4049C280.251 56.4049 282.252 60.3878 281.294 66.9555C281.188 67.6788 281.038 68.6899 280.858 69.8927L280.856 69.902C280.553 71.9356 280.159 74.5435 279.728 77.3906C279.716 77.4622 279.706 77.5327 279.695 77.6055L279.689 77.6448C279.647 77.929 279.603 78.2179 279.558 78.5056C279.293 81.4971 280.109 91.2909 302.153 91.403L317.158 92.0096L317.387 92.0188C317.387 92.0188 322.414 91.9634 325.458 91.9634C331.783 91.9634 332.869 85.933 332.159 81.4694C331.859 79.586 331.174 75.2171 329.674 67.6834C333.753 65.9086 339.175 63.9293 338.267 60.8176Z" fill="#EF9E89"/>
<path fill-rule="evenodd" clip-rule="evenodd" d="M276.228 36.5225C276.228 36.5225 272.404 46.1303 272.755 58.5551L272.726 58.5412L272.783 59.3269C272.827 60.368 272.903 61.4276 273.01 62.4998L274.374 81.4842C274.374 81.4842 274.627 86.603 278.284 86.9092C281.941 87.2177 284.807 86.9092 284.807 86.9092C284.807 86.9092 288.211 86.7197 290.31 82.4017C292.41 78.0837 294.463 75.2759 295.31 69.7816C295.413 69.249 295.509 68.6989 295.594 68.1293C295.824 66.6179 294.548 66.269 293.425 66.1927C292.302 66.1142 289.01 64.6432 289.165 60.3819C289.32 56.1216 292.009 54.2232 295.622 53.9909C295.622 53.9909 303.455 54.3896 303.043 44.092C303.043 44.092 337.155 42.9331 340.756 31.2305C350.54 -0.565794 286.604 5.12721 276.228 36.5225Z" fill="black"/>
<path fill-rule="evenodd" clip-rule="evenodd" d="M316.325 53.4668C316.679 56.8593 321.791 56.4479 321.833 53.1849C321.881 49.4955 315.908 49.4562 316.325 53.4668Z" fill="black"/>
<path fill-rule="evenodd" clip-rule="evenodd" d="M310.947 77.7971C318.222 82.5785 326.442 80.7078 326.834 80.6142C327.765 80.3923 328.34 79.4575 328.119 78.5274C327.897 77.5949 326.964 77.0206 326.034 77.2413C325.879 77.2772 316.884 79.2553 310.512 73.0123C309.828 72.3468 308.73 72.3549 308.06 73.0377C307.391 73.7229 307.402 74.8195 308.086 75.4897C309.008 76.3921 309.97 77.1547 310.947 77.7971Z" fill="black"/>
<path fill-rule="evenodd" clip-rule="evenodd" d="M325.882 64.5488C324.174 64.669 322.352 65.1728 320.006 66.7107C316.588 68.95 313.74 66.7107 310.474 64.3998C304.12 59.9043 305.105 44.164 296.439 45.3195C290.429 46.1209 292.449 54.8321 293.428 65.1358C294.596 77.4225 295.746 91.9736 300.185 98.077C308.347 109.299 328.848 106.682 331.071 106.541C346.135 105.583 335.991 77.6889 332.878 68.7594C331.732 65.4721 328.826 64.342 325.882 64.5488Z" fill="black"/>
<path fill-rule="evenodd" clip-rule="evenodd" d="M322.034 77.4559C317.881 78.3121 315.845 77.4247 315.79 77.4155C314.843 77.2676 314.196 76.3813 314.344 75.435C314.491 74.4979 315.364 73.8555 316.299 73.9872C317.306 74.0993 322.535 74.8041 325.923 72.2286C326.683 71.6462 327.772 71.7964 328.352 72.559C328.932 73.3205 328.784 74.4066 328.021 74.9867C326.351 76.2577 324.177 77.0134 322.034 77.4559Z" fill="white"/>
<path fill-rule="evenodd" clip-rule="evenodd" d="M330.446 47.0119L303.324 47.6613H291.572C290.614 47.6613 289.839 48.4366 289.839 49.3945C289.839 50.3512 290.614 51.1277 291.572 51.1277H302.54L318.359 60.8406C319.018 61.2438 319.866 61.1549 320.425 60.6233L331.66 49.9514C332.791 48.8768 332.005 46.9749 330.446 47.0119Z" fill="black"/>
<path fill-rule="evenodd" clip-rule="evenodd" d="M315.567 56.4983C315.079 56.4983 314.818 56.2857 314.576 56.0038C314.348 55.7392 313.927 55.0274 314.74 53.984C314.353 53.954 314.034 53.8303 313.804 53.5288C313.417 53.0204 313.515 52.2959 314.022 51.9088C317.905 48.9531 318.869 49.3367 319.282 49.5019C319.704 49.6706 320.01 50.0323 320.102 50.4714C320.211 50.9902 320.035 51.4963 319.544 52.1653C319.974 51.9053 320.451 51.613 320.977 51.2837C324.215 49.25 325.616 48.5383 326.442 49.6926C326.724 50.0889 327.584 51.2906 322.223 55.634C321.727 56.0338 320.998 55.9576 320.598 55.463C320.333 55.136 320.276 54.7097 320.408 54.3422C317.679 55.9657 316.339 56.4983 315.567 56.4983Z" fill="#F8FBF8"/>
</g>
<defs>
<clipPath id="clip0_18_2668">
<rect width="637.845" height="616.632" fill="white" transform="translate(0.342773)"/>
</clipPath>
</defs>
</svg>
